<svg xmlns="http://www.w3.org/2000/svg" viewBox="0 0 32 32">
  <defs>
    <linearGradient id="grad" x1="0%" y1="0%" x2="100%" y2="100%">
      <stop offset="0%" style="stop-color:#6366f1"/>
      <stop offset="100%" style="stop-color:#8b5cf6"/>
    </linearGradient>
  </defs>
  <rect width="32" height="32" rx="6" fill="url(#grad)"/>
  <!-- Opening curly brace styled as C -->
  <path d="M6 10c2 0 3 1 3 3v3c0 1-1 2-2 2 1 0 2 1 2 2v3c0 2-1 3-3 3" stroke="#fff" stroke-width="2" stroke-linecap="round" fill="none"/>
  <!-- Closing curly brace styled as D -->
  <path d="M26 10c-2 0-3 1-3 3v3c0 1 1 2 2 2-1 0-2 1-2 2v3c0 2 1 3 3 3" stroke="#fff" stroke-width="2" stroke-linecap="round" fill="none"/>
  <!-- CD monogram -->
  <text x="16" y="21" font-family="'SF Mono', Consolas, monospace" font-size="10" font-weight="600" fill="#fff" text-anchor="middle" letter-spacing="-0.5">CD</text>
</svg>
